<svg width="198" height="198" viewBox="0 0 198 198" fill="none" xmlns="http://www.w3.org/2000/svg">
<rect width="198" height="198" fill="white"/>
<path fill-rule="evenodd" clip-rule="evenodd" d="M4 80H20.6667L24.8333 84.1667H29.8334V101.667L35.3334 98.6667L40.8334 101.667V84.1667H45.6667V113.333H4V80Z" fill="#001D86"/>
<path d="M55.168 110V88.6719H62.4775C64.8896 88.6719 66.7256 89.1553 67.9854 90.1221C69.2451 91.0889 69.875 92.5293 69.875 94.4434C69.875 95.4199 69.6113 96.2988 69.084 97.0801C68.5566 97.8613 67.7852 98.4668 66.7695 98.8965C67.9219 99.209 68.8105 99.7998 69.4355 100.669C70.0703 101.528 70.3877 102.563 70.3877 103.774C70.3877 105.776 69.7432 107.314 68.4541 108.389C67.1748 109.463 65.3389 110 62.9463 110H55.168ZM58.874 100.376V107.041H62.9902C64.1523 107.041 65.0605 106.753 65.7148 106.177C66.3691 105.601 66.6963 104.8 66.6963 103.774C66.6963 101.558 65.5635 100.425 63.2979 100.376H58.874ZM58.874 97.6514H62.5068C63.6592 97.6514 64.5576 97.3926 65.2021 96.875C65.8564 96.3477 66.1836 95.6055 66.1836 94.6484C66.1836 93.5938 65.8809 92.832 65.2754 92.3633C64.6797 91.8945 63.7471 91.6602 62.4775 91.6602H58.874V97.6514ZM73.233 101.929C73.233 100.376 73.5406 98.9795 74.1559 97.7393C74.7711 96.4893 75.6354 95.5322 76.7486 94.8682C77.8619 94.1943 79.1412 93.8574 80.5865 93.8574C82.7252 93.8574 84.4586 94.5459 85.7867 95.9229C87.1246 97.2998 87.8473 99.126 87.9547 101.401L87.9693 102.236C87.9693 103.799 87.6666 105.195 87.0611 106.426C86.4654 107.656 85.6061 108.608 84.483 109.282C83.3697 109.956 82.0807 110.293 80.6158 110.293C78.3795 110.293 76.5875 109.551 75.2398 108.066C73.902 106.572 73.233 104.585 73.233 102.104V101.929ZM76.7926 102.236C76.7926 103.867 77.1295 105.146 77.8033 106.074C78.4771 106.992 79.4146 107.451 80.6158 107.451C81.817 107.451 82.7496 106.982 83.4137 106.045C84.0875 105.107 84.4244 103.735 84.4244 101.929C84.4244 100.327 84.0777 99.0576 83.3844 98.1201C82.7008 97.1826 81.7682 96.7139 80.5865 96.7139C79.4244 96.7139 78.5016 97.1777 77.818 98.1055C77.1344 99.0234 76.7926 100.4 76.7926 102.236ZM90.4631 101.929C90.4631 100.376 90.7707 98.9795 91.3859 97.7393C92.0012 96.4893 92.8654 95.5322 93.9787 94.8682C95.092 94.1943 96.3713 93.8574 97.8166 93.8574C99.9553 93.8574 101.689 94.5459 103.017 95.9229C104.355 97.2998 105.077 99.126 105.185 101.401L105.199 102.236C105.199 103.799 104.897 105.195 104.291 106.426C103.696 107.656 102.836 108.608 101.713 109.282C100.6 109.956 99.3107 110.293 97.8459 110.293C95.6096 110.293 93.8176 109.551 92.4699 108.066C91.132 106.572 90.4631 104.585 90.4631 102.104V101.929ZM94.0227 102.236C94.0227 103.867 94.3596 105.146 95.0334 106.074C95.7072 106.992 96.6447 107.451 97.8459 107.451C99.0471 107.451 99.9797 106.982 100.644 106.045C101.318 105.107 101.654 103.735 101.654 101.929C101.654 100.327 101.308 99.0576 100.614 98.1201C99.9309 97.1826 98.9982 96.7139 97.8166 96.7139C96.6545 96.7139 95.7316 97.1777 95.048 98.1055C94.3645 99.0234 94.0227 100.4 94.0227 102.236ZM113.509 103.203L111.927 104.829V110H108.367V87.5H111.927V100.479L113.04 99.0869L117.42 94.1504H121.697L115.808 100.757L122.327 110H118.211L113.509 103.203ZM127.531 94.1504L127.633 95.8057C128.746 94.5068 130.27 93.8574 132.204 93.8574C134.323 93.8574 135.773 94.668 136.554 96.2891C137.706 94.668 139.328 93.8574 141.417 93.8574C143.165 93.8574 144.464 94.3408 145.314 95.3076C146.173 96.2744 146.613 97.7002 146.632 99.585V110H143.073V99.6875C143.073 98.6816 142.853 97.9443 142.413 97.4756C141.974 97.0068 141.246 96.7725 140.231 96.7725C139.42 96.7725 138.756 96.9922 138.239 97.4316C137.731 97.8613 137.374 98.4277 137.169 99.1309L137.184 110H133.624V99.5703C133.576 97.7051 132.623 96.7725 130.768 96.7725C129.342 96.7725 128.331 97.3535 127.736 98.5156V110H124.176V94.1504H127.531ZM159.907 110C159.751 109.697 159.614 109.204 159.497 108.521C158.364 109.702 156.978 110.293 155.337 110.293C153.745 110.293 152.446 109.839 151.44 108.931C150.435 108.022 149.932 106.899 149.932 105.562C149.932 103.872 150.557 102.578 151.807 101.68C153.066 100.771 154.863 100.317 157.197 100.317H159.38V99.2773C159.38 98.457 159.15 97.8027 158.691 97.3145C158.232 96.8164 157.534 96.5674 156.597 96.5674C155.786 96.5674 155.122 96.7725 154.604 97.1826C154.087 97.583 153.828 98.0957 153.828 98.7207H150.269C150.269 97.8516 150.557 97.041 151.133 96.2891C151.709 95.5273 152.49 94.9316 153.477 94.502C154.473 94.0723 155.581 93.8574 156.802 93.8574C158.657 93.8574 160.137 94.3262 161.24 95.2637C162.344 96.1914 162.91 97.5 162.939 99.1895V106.338C162.939 107.764 163.14 108.901 163.54 109.751V110H159.907ZM155.996 107.437C156.699 107.437 157.358 107.266 157.974 106.924C158.599 106.582 159.067 106.123 159.38 105.547V102.559H157.461C156.143 102.559 155.151 102.788 154.487 103.247C153.823 103.706 153.491 104.355 153.491 105.195C153.491 105.879 153.716 106.426 154.165 106.836C154.624 107.236 155.234 107.437 155.996 107.437ZM175.116 97.4023C174.647 97.3242 174.164 97.2852 173.666 97.2852C172.035 97.2852 170.936 97.9102 170.37 99.1602V110H166.81V94.1504H170.209L170.296 95.9229C171.156 94.5459 172.347 93.8574 173.871 93.8574C174.379 93.8574 174.798 93.9258 175.13 94.0625L175.116 97.4023ZM182.663 103.203L181.081 104.829V110H177.522V87.5H181.081V100.479L182.195 99.0869L186.574 94.1504H190.852L184.963 100.757L191.482 110H187.365L182.663 103.203Z" fill="black" fill-opacity="0.87"/>
</svg>
